<svg
        id="svg164"
        enable-background="new 0 0 512 512"
        viewBox="0 0 512 512"
        y="0px"
        x="0px"
        version="1.1">
    <defs
            id="defs168"/>
    <path
            d="M 371.8,488.5 H 140.2 C 75.8,488.5 23.5,436.3 23.5,371.8 V 140.2 C 23.5,75.8 75.7,23.5 140.2,23.5 h 231.7 c 64.4,0 116.7,52.2 116.7,116.7 v 231.7 c -0.1,64.4 -52.3,116.6 -116.8,116.6 z"
            id="path5"
            style="fill:#212121;fill-opacity:1"/>
    <path
            d="M 228.8,254.4 180.6,214.7 167.1,208 c -21.80461,-3.47074 -36.7,-18.9 -36.7,-18.9 l -9.6,-10.5 -45.2,-75.5 24.6,-22.4 21.6,28.9 c 0,15.3 10.7,21 10.7,21 l 52.9,-2.3 7.3,34.2 10.2,20.1 c 3.5,13 18.2,18.5 18.2,18.5 l 31.6,33.9 z"
            id="path7"
            style="opacity:1;fill:#3f51b5;fill-opacity:1"/>
    <path
            d="m 284,257 49.2,39.7 13.5,6.7 36.7,18.9 9.6,10.5 44.2,75.5 -24.6,22.4 -20.6,-28.9 c 0,-15.3 -10.8,-21 -10.8,-21 l -52.9,2.3 -7.3,-34.2 -10.2,-20.1 c -3.5,-13 -18.2,-18.5 -18.2,-18.5 L 260,276.2 Z"
            id="path9"
            style="opacity:1;fill:#3f51b5;fill-opacity:1"/>
    <path
            d="m 474,174.8 23.8,-23.3 V 17.8 h -138 L 343.5,35.3 C 323,119.5 386.3,180.8 474,174.8 Z"
            id="path11"
            style="fill:#283593;fill-opacity:1"/>
    <path
            id="path13"
            d="m 331.69922,27.199219 -3.89844,3.601562 -3.90039,13.398438 L 328.30078,58 333.90039,61.699219 345.30078,64.5 c 0,0 12.69961,-8.4 13.59961,-9 v -0.400391 c 0,21.899472 5.85163,42.98998 17.74023,60.029301 l -17.74023,8.9707 -0.59961,8 v 9 l 6.09961,11.40039 11.5,5.19922 9.29883,-2.79883 10.10156,-0.0996 6.5625,-15.71484 C 416.92037,148.45447 435.99779,154 459.19922,154 c -0.6,0.9 -9,13.59961 -9,13.59961 L 453,179 456.69922,184.59961 470.5,189 483.90039,185.09961 487.5,181.19922 V 161.5 L 481.90039,154 H 482 V 32.300781 H 358.90039 c 0,0 -5.64141,-3.713429 -7.5,-5.101562 z M 368.59961,55.5 h 62.09961 V 66.199219 L 385.5,110.30078 C 378.4,102.20078 368.59961,86.8 368.59961,55.5 Z m 80.09961,27.099609 h 10.70117 v 62.199221 c -31.23204,-0.0211 -46.6099,-9.80609 -54.70117,-16.89844 z"
            style="opacity:1;fill:#303f9f;fill-opacity:1"/>
    <path
            style="fill:#3f51b5;fill-opacity:1"
            id="path21"
            d="m 457.5,179 h -15.8 c -0.6,0 -1,-0.4 -1,-1 v -10.3 c 0,-0.6 0.4,-1 1,-1 h 15.8 c 0.6,0 1,0.4 1,1 V 178 c 0,0.6 -0.4,1 -1,1 z"/>
    <path
            style="fill:#3f51b5;fill-opacity:1"
            id="path23"
            d="m 394,164.9 -13,-9.1 c -0.5,-0.3 -0.6,-0.9 -0.2,-1.4 l 5.9,-8.4 c 0.3,-0.5 0.9,-0.6 1.4,-0.2 l 13,9.1 c 0.5,0.3 0.6,0.9 0.2,1.4 l -5.9,8.4 c -0.3,0.4 -0.9,0.5 -1.4,0.2 z"/>
    <path
            style="fill:none;stroke:#3f51b5;stroke-width:8;stroke-miterlimit:10;stroke-opacity:1"
            id="path25"
            d="m 398,159.9 c 14.6,10.1 22.1,12.5 43.4,13"
            stroke-miterlimit="10"/>
    <path
            style="fill:#3f51b5;fill-opacity:1"
            id="path29"
            d="m 358.4,134.2 -9.1,-12.9 c -0.3,-0.5 -0.2,-1.1 0.2,-1.4 l 8.4,-5.9 c 0.5,-0.3 1.1,-0.2 1.4,0.2 l 9.1,12.9 c 0.3,0.5 0.2,1.1 -0.2,1.4 l -8.4,5.9 c -0.4,0.4 -1.1,0.2 -1.4,-0.2 z"/>
    <path
            style="fill:#3f51b5;fill-opacity:1"
            id="path31"
            d="M 333.4,74.2 V 58.4 c 0,-0.6 0.4,-1 1,-1 h 10.3 c 0.6,0 1,0.4 1,1 v 15.8 c 0,0.6 -0.4,1 -1,1 h -10.3 c -0.6,0 -1,-0.5 -1,-1 z"/>
    <path
            style="fill:none;stroke:#3f51b5;stroke-width:8;stroke-miterlimit:10;stroke-opacity:1"
            id="path33"
            d="m 339.8,74.5 c 0.2,17.8 2.5,25.2 14.4,43"
            stroke-miterlimit="10"/>
    <path
            d="m 507.8,4.5 h -39.3 c -2,4 -3.2,8.5 -3.2,13.3 0,16 13,29 29,29 4.9,0 9.4,-1.2 13.5,-3.3 z"
            id="path37"
            style="fill:#3f51b5;fill-opacity:1"/>
    <g
            style="fill:#616161;fill-opacity:1"
            id="g4856">
        <path
                style="fill:#616161;fill-opacity:1"
                id="path41"
                d="m 308,60 h 7.7 c -0.8,23.2 5,44.3 9.5,50.8 0,0 -1.2,3.1 -7,5.8 -5.5,2.5 -10.1,2.5 -10.1,2.5 0,-11 -14.3,-25.2 -14.3,-25.2 C 315.7,79.7 308,60 308,60 Z"/>
        <path
                style="fill:#616161;fill-opacity:1"
                id="path43"
                d="m 241.8,60 h 51.8 c 0,0 4.8,6.2 2.5,12 C 289,89.8 269,88.5 269,88.5 264.8,76.7 241.8,68.8 241.8,68.8 Z"/>
        <path
                style="fill:#616161;fill-opacity:1"
                id="path45"
                d="m 194.7,59.3 c -0.3,5.2 9.7,13.5 9.7,13.5 15.5,-5.3 23.8,-4.2 23.8,-4.2 v -9.3 z"/>
        <path
                style="fill:#616161;fill-opacity:1"
                id="path47"
                d="m 180,59.3 c 2.7,10.5 8.8,15.8 8.8,15.8 -1.8,4.5 -16.7,4.2 -16.7,4.2 l -6.2,-4.8 h -20.2 c -4.8,-5.2 -5.3,-12.9 -5.3,-12.9 l 7,-2.3 z"/>
        <path
                style="fill:#616161;fill-opacity:1"
                id="path49"
                d="m 123.5,66.2 19.5,37.5 c -8.8,12.5 -23,10 -23,10 L 100.2,88.5 v -7.8 c 3.4,-5.9 23.3,-14.5 23.3,-14.5 z"/>
        <path
                style="fill:#616161;fill-opacity:1"
                id="path51"
                d="m 155.5,88.5 c -0.2,3.7 5,9 5,9 16.8,-1.9 36.8,16.2 36.8,16.2 C 228.2,99.9 247,105 247,105 251.8,95.3 252.7,93.5 252.7,93.5 246,82.2 235.2,81.8 235.2,81.8 l -0.1,9 c 0,0 -2.6,8.4 -13.3,8.2 C 210.3,98.8 210,85.8 210,85.8 c -4.9,-0.3 -7.9,0.1 -16.5,2.8 -16.3,5.1 -38,-0.1 -38,-0.1 z"/>
        <path
                style="fill:#616161;fill-opacity:1"
                id="path53"
                d="m 154.7,113.7 c 46,0 40.6,38.9 47.9,54.8 1.5,3.3 9.6,8.5 9.6,8.5 -1.6,6.1 -9.2,11.6 -9.2,11.6 -32.4,-6.2 -38.3,-18.3 -38.3,-18.3 15.7,0.8 31.7,-17.6 16.5,-32 -13.3,-12.6 -37.2,1.5 -27.7,21.5 0,0 -2.5,5.4 -3.8,4.3 0,0 -16.2,-12.3 -22.7,-31 l 3.4,-4.8 c 19.1,-0.9 24.3,-14.6 24.3,-14.6 z"/>
        <path
                style="fill:#616161;fill-opacity:1"
                id="path55"
                d="m 230.8,118 c 4.7,0 6.3,2.8 6.3,2.8 -8.2,6.8 -10,20.1 0.3,25.7 17.6,9.7 25.1,-9 24.1,-14.3 0,0 4.4,4.5 4.1,8.8 -0.2,3 0,11.9 0,11.9 -6.8,7.2 -22.9,10.8 -22.9,10.8 h -16.6 c -4.8,0 -7.9,-2.3 -7.9,-2.3 0,0 -0.6,-13.4 -1.8,-17.6 -1.7,-5.9 -2.5,-8.8 -2.5,-8.8 9,-14.7 16.9,-17 16.9,-17 z"/>
        <path
                style="fill:#616161;fill-opacity:1"
                id="path57"
                d="m 263.1,112.1 c 2.1,-5.1 7.3,-5.9 7.3,-5.9 35.7,-5.6 26.4,43.9 16.3,46.8 l -4.4,-3.6 c 3.8,-21.2 -19.2,-37.3 -19.2,-37.3 z"/>
        <path
                style="fill:#616161;fill-opacity:1"
                id="path59"
                d="m 330.5,125.4 c 0,0 10.9,18.1 15.1,22 l -20.5,18.9 c 0,0 -8,-0.7 -10.5,0 -2.2,0.6 -7.8,4.4 -7.8,4.4 0,0 -5.9,-2.8 -5.9,-6.9 0,0 10.3,-11.5 8.4,-31.1 0.1,-0.1 15.3,-2.7 21.2,-7.3 z"/>
        <path
                style="fill:#616161;fill-opacity:1"
                id="path61"
                d="m 278.1,166.9 7.9,-0.6 c 0,0 3.5,13.3 19.8,17.3 L 273.7,215 c -13.3,-13.9 -30.2,-22 -30.2,-22 -0.8,-3.9 0,-13.2 0,-13.2 l 9.1,-0.2 c 0,4.3 6.4,20.3 21.6,15.1 18.2,-6.2 8.6,-24.8 3.9,-27.8 z"/>
        <path
                style="fill:#616161;fill-opacity:1"
                id="path63"
                d="m 217.3,200.6 c 19.8,-3.8 44.9,24.8 44.9,24.8 l -9.4,9.8 c -12.7,-14.2 -35.5,-31 -35.5,-31 z"/>
        <path
                style="fill:#616161;fill-opacity:1"
                id="path65"
                d="m 372.6,172.9 c 11.4,9.3 35.8,17.8 35.8,17.8 -1.6,12.3 1.1,17.8 5.9,22.1 3.9,3.4 7.7,20.8 -0.4,32.1 l -4.2,-1.5 c 2.1,-6.2 0.6,-23.2 -16.9,-37 -7.5,-5.9 -15.1,-7.7 -36.4,-4.3 l -7.2,-5.7 z"/>
        <path
                style="fill:#616161;fill-opacity:1"
                id="path67"
                d="m 426.4,195.2 c 5.7,3.6 28.2,2.2 28.2,2.2 v 64 c -15,-0.5 -23.7,-16 -23.7,-16 5.1,-32.2 -6.5,-41.1 -7.4,-45.2 z"/>
        <path
                style="fill:#616161;fill-opacity:1"
                id="path69"
                d="m 377.1,211.6 c -5.5,3.4 -11.9,14.8 -4,22.3 8.3,7.9 17.3,2.9 21,-0.1 0,0 1.5,4.3 -2.9,8.4 -6.8,6.3 -21.5,11.6 -31.4,-2 -9,-12.3 -1.8,-25.1 7.1,-28.5 8.4,-3.2 10.2,-0.1 10.2,-0.1 z"/>
        <path
                style="fill:#616161;fill-opacity:1"
                id="path71"
                d="m 337.3,207.5 7,7.5 c -10.8,21.5 1.4,37.5 1.4,37.5 -7.1,12 -23.5,5.8 -25.9,4.5 -2.8,-1.5 -9.3,-6 -11,-21.8 z"/>
        <path
                style="fill:#616161;fill-opacity:1"
                id="path73"
                d="m 425.8,259.7 c 0,0 13.3,15.5 28.8,17.5 v 34 c -1.1,8.3 -4.4,12.5 -4.4,12.5 -5.7,0.5 -11.1,8 -11.1,8 0,0 -4.8,-17.5 2.4,-27.5 0,0 9.2,-3.5 8.1,-13.4 -1.3,-12.1 -11.3,-13.6 -23.8,-9.6 0,0 -7.1,-5.3 -6,-15.3 z"/>
        <path
                style="fill:#616161;fill-opacity:1"
                id="path75"
                d="m 398.3,295.7 c 21.3,-17.4 30.7,3.9 30.7,3.9 1.5,12.8 -2.9,16.7 -4.3,22.2 -2.8,10.7 0.8,19.8 0.8,19.8 l -3.5,3.7 c -8.2,-10.2 -9.1,-28.3 -13,-36.5 -3.5,-7.3 -10.7,-13.1 -10.7,-13.1 z"/>
        <path
                style="fill:#616161;fill-opacity:1"
                id="path77"
                d="m 406.3,258.7 c 0,0 -4.7,7.8 -9.8,9.2 0,0 -1.3,-2.9 -5.1,-4.6 -5.2,-2.2 -13.8,-2.6 -18.7,6.2 -4.4,7.8 1.9,18.6 10.3,18.5 0,0 -2.9,9.1 5.3,22.3 0,0 -2.1,11.2 -8.8,13.7 0,0 -4.9,-6.6 -15.6,-11.4 -6.4,-2.9 -20.5,-7.8 -20.5,-7.8 30.9,-19.8 15.6,-41.2 15.6,-41.2 0,0 16.9,-13.8 47.3,-4.9 z"/>
        <path
                style="fill:#616161;fill-opacity:1"
                id="path79"
                d="m 295.3,246.7 c 12,40.8 49.3,25.3 49.3,25.3 3.2,16.9 -12.5,24.7 -12.5,24.7 -29,2 -48.2,-39.7 -48.2,-39.7 z"/>
        <path
                style="fill:#616161;fill-opacity:1"
                id="path81"
                d="m 400.1,321.4 c 0,0 -5.4,0 -9.1,14.5 0,0 5,4.3 13.9,32 0.7,2.2 12.3,29 32.2,40.3 0,0 15.5,-15.1 17.5,-40.6 v -30.4 c -6.5,-1.3 -15.6,7 -15.6,7 0,0 5.1,12.4 -5.6,18.1 -12.9,6.9 -21.7,-6 -21.7,-6 0,0 -8.9,-11.1 -6.1,-20.8 -0.1,0.1 -5,-6.2 -5.5,-14.1 z"/>
    </g>
    <path
            d="M 38.8,336.6 15,359.9 v 133.8 h 138 l 16.3,-17.5 C 189.8,391.9 126.6,330.6 38.8,336.6 Z"
            id="path87"
            style="fill:#283593;fill-opacity:1"/>
    <path
            id="path89"
            d="m 42.300781,322.40039 -13.40039,3.90039 -3.59961,3.89844 v 19.70117 l 5.59961,7.5 L 30.800781,479 H 153.90039 c 0,0 5.64138,3.71194 7.5,5.09961 h 19.69922 L 185,480.5 188.90039,467.09961 184.5,453.30078 178.90039,449.59961 167.5,446.80078 c 0,0 -12.69961,8.4 -13.59961,9 v 0.39844 c 0,-21.85223 -5.82515,-42.89798 -17.66211,-59.91797 L 154,387.30078 l 0.59961,-8 v -9 L 148.5,358.90039 137,353.69922 127.69922,356.5 l -10.09961,0.0996 -6.55078,15.68164 c -15.059953,-9.4017 -34.154156,-14.96979 -57.382814,-14.98047 0.708406,-1.06405 8.933593,-13.5 8.933593,-13.5 l -2.798828,-11.40039 -3.701172,-5.59961 z m 11,44.19922 c 31.3,0 46.698828,9.80039 54.798829,16.90039 L 64.099609,428.80078 H 53.300781 Z m 73.999999,34.5 c 7.1,8.1 16.89844,23.50078 16.89844,54.80078 H 82.099609 v -10.70117 z"
            style="opacity:1;fill:#303f9f;fill-opacity:1"/>
    <path
            style="fill:#3f51b5;fill-opacity:1"
            id="path97"
            d="m 55.3,332.3 h 15.8 c 0.6,0 1,0.4 1,1 v 10.3 c 0,0.6 -0.4,1 -1,1 H 55.3 c -0.6,0 -1,-0.4 -1,-1 v -10.3 c 0,-0.5 0.4,-1 1,-1 z"/>
    <path
            style="fill:#3f51b5;fill-opacity:1"
            id="path99"
            d="m 118.8,346.5 13,9.1 c 0.5,0.3 0.6,0.9 0.2,1.4 l -5.9,8.4 c -0.3,0.5 -0.9,0.6 -1.4,0.2 l -13,-9.1 c -0.5,-0.3 -0.6,-0.9 -0.2,-1.4 l 5.9,-8.4 c 0.3,-0.4 0.9,-0.5 1.4,-0.2 z"/>
    <path
            style="fill:none;stroke:#3f51b5;stroke-width:8;stroke-miterlimit:10;stroke-opacity:1"
            id="path101"
            d="M 114.8,351.5 C 100.2,341.4 92.7,339 71.4,338.5"
            stroke-miterlimit="10"/>
    <path
            style="fill:#3f51b5;fill-opacity:1"
            id="path105"
            d="m 154.4,377.2 9.1,12.9 c 0.3,0.5 0.2,1.1 -0.2,1.4 l -8.4,5.9 c -0.5,0.3 -1.1,0.2 -1.4,-0.2 l -9.1,-12.9 c -0.3,-0.5 -0.2,-1.1 0.2,-1.4 L 153,377 c 0.4,-0.4 1.1,-0.3 1.4,0.2 z"/>
    <path
            style="fill:#3f51b5;fill-opacity:1"
            id="path107"
            d="M 179.4,437.2 V 453 c 0,0.6 -0.4,1 -1,1 h -10.3 c -0.6,0 -1,-0.4 -1,-1 v -15.8 c 0,-0.6 0.4,-1 1,-1 h 10.3 c 0.6,0 1,0.4 1,1 z"/>
    <path
            style="fill:none;stroke:#3f51b5;stroke-width:8;stroke-miterlimit:10;stroke-opacity:1"
            id="path109"
            d="m 173,436.8 c -0.2,-17.8 -2.5,-25.2 -14.4,-43"
            stroke-miterlimit="10"/>
    <path
            d="m 5.1,506.9 h 39.3 c 2,-4 3.2,-8.5 3.2,-13.3 0,-16 -13,-29 -29,-29 -4.9,0 -9.4,1.2 -13.5,3.3 z"
            id="path113"
            style="fill:#3f51b5;fill-opacity:1"/>
    <g
            style="fill:#616161;fill-opacity:1"
            id="g159">
        <path
                style="fill:#616161;fill-opacity:1"
                id="path117"
                d="m 204.8,451.4 h -7.7 c 0.8,-23.2 -5,-44.3 -9.5,-50.8 0,0 1.2,-3.1 7,-5.8 5.5,-2.5 10.1,-2.5 10.1,-2.5 0,11 14.3,25.2 14.3,25.2 -21.9,14.2 -14.2,33.9 -14.2,33.9 z"/>
        <path
                style="fill:#616161;fill-opacity:1"
                id="path119"
                d="m 271,451.4 h -51.8 c 0,0 -4.8,-6.2 -2.5,-12 7.2,-17.8 27.2,-16.5 27.2,-16.5 4.2,11.8 27.2,19.7 27.2,19.7 v 8.8 z"/>
        <path
                style="fill:#616161;fill-opacity:1"
                id="path121"
                d="m 318.1,452 c 0.3,-5.2 -9.7,-13.5 -9.7,-13.5 -15.5,5.3 -23.8,4.2 -23.8,4.2 v 9.3 z"/>
        <path
                style="fill:#616161;fill-opacity:1"
                id="path123"
                d="m 332.8,452 c -2.7,-10.5 -8.8,-15.8 -8.8,-15.8 1.8,-4.5 16.7,-4.2 16.7,-4.2 l 6.2,4.8 H 367 c 4.8,5.2 5.3,12.9 5.3,12.9 l -7,2.3 z"/>
        <path
                style="fill:#616161;fill-opacity:1"
                id="path125"
                d="m 389.3,445.1 -19.5,-37.5 c 8.8,-12.5 23,-10 23,-10 l 19.8,25.2 v 7.8 c -3.4,6 -23.3,14.5 -23.3,14.5 z"/>
        <path
                style="fill:#616161;fill-opacity:1"
                id="path127"
                d="m 357.3,422.8 c 0.2,-3.7 -5,-9 -5,-9 -16.8,1.9 -36.8,-16.2 -36.8,-16.2 -30.9,13.9 -49.8,8.7 -49.8,8.7 -4.8,9.7 -5.7,11.5 -5.7,11.5 6.7,11.3 17.5,11.7 17.5,11.7 l 0.1,-9 c 0,0 2.6,-8.4 13.3,-8.2 11.6,0.2 11.9,13.3 11.9,13.3 4.9,0.3 7.9,-0.1 16.5,-2.8 16.3,-5.1 38,0 38,0 z"/>
        <path
                style="fill:#616161;fill-opacity:1"
                id="path129"
                d="m 358.1,397.6 c -46,0 -40.6,-38.9 -47.9,-54.8 -1.5,-3.3 -9.6,-8.5 -9.6,-8.5 1.6,-6.1 9.2,-11.6 9.2,-11.6 32.4,6.2 38.3,18.3 38.3,18.3 -15.7,-0.8 -31.7,17.6 -16.5,32 13.3,12.6 37.2,-1.5 27.7,-21.5 0,0 2.5,-5.4 3.8,-4.3 0,0 16.2,12.3 22.7,31 l -3.4,4.8 c -19.1,1 -24.3,14.6 -24.3,14.6 z"/>
        <path
                style="fill:#616161;fill-opacity:1"
                id="path131"
                d="m 282.1,393.4 c -4.7,0 -6.3,-2.8 -6.3,-2.8 8.2,-6.8 10,-20.1 -0.3,-25.8 -17.6,-9.7 -25.1,9 -24.1,14.3 0,0 -4.4,-4.5 -4.1,-8.8 0.2,-3 0,-11.9 0,-11.9 6.8,-7.2 22.9,-10.8 22.9,-10.8 h 16.6 c 4.8,0 7.9,2.3 7.9,2.3 0,0 0.6,13.4 1.8,17.6 1.7,5.9 2.5,8.8 2.5,8.8 -9.1,14.7 -16.9,17.1 -16.9,17.1 z"/>
        <path
                style="fill:#616161;fill-opacity:1"
                id="path133"
                d="m 249.7,399.2 c -2.1,5.1 -7.3,5.9 -7.3,5.9 -35.7,5.6 -26.4,-43.9 -16.3,-46.8 l 4.4,3.6 c -3.8,21.3 19.2,37.3 19.2,37.3 z"/>
        <path
                style="fill:#616161;fill-opacity:1"
                id="path135"
                d="m 182.3,386 c 0,0 -10.9,-18.1 -15.1,-22 l 20.5,-18.9 c 0,0 8,0.7 10.5,0 2.2,-0.6 7.8,-4.4 7.8,-4.4 0,0 5.9,2.8 5.9,6.9 0,0 -10.3,11.5 -8.4,31.1 -0.1,0 -15.3,2.7 -21.2,7.3 z"/>
        <path
                style="fill:#616161;fill-opacity:1"
                id="path137"
                d="m 234.7,344.5 -7.9,0.6 c 0,0 -3.5,-13.3 -19.8,-17.3 l 32.2,-31.3 c 13.3,13.9 30.2,22 30.2,22 0.8,3.9 0,13.2 0,13.2 l -9.1,0.2 c 0,-4.3 -6.4,-20.3 -21.6,-15.1 -18.3,6.1 -8.7,24.7 -4,27.7 z"/>
        <path
                style="fill:#616161;fill-opacity:1"
                id="path139"
                d="M 295.5,310.8 C 275.7,314.6 250.6,286 250.6,286 l 9.4,-9.8 c 12.7,14.2 35.5,31 35.5,31 z"/>
        <path
                style="fill:#616161;fill-opacity:1"
                id="path141"
                d="m 140.2,338.5 c -11.4,-9.3 -35.8,-17.8 -35.8,-17.8 1.6,-12.3 -1.1,-17.8 -5.9,-22.1 -3.9,-3.4 -7.7,-20.8 0.4,-32.1 l 4.2,1.5 c -2.1,6.2 -0.6,23.2 16.9,37 7.5,5.9 15.1,7.7 36.4,4.3 l 7.2,5.7 z"/>
        <path
                style="fill:#616161;fill-opacity:1"
                id="path143"
                d="M 86.4,316.2 C 80.7,312.6 58.2,314 58.2,314 v -64 c 15,0.5 23.7,16 23.7,16 -5.1,32.2 6.5,41.1 7.4,45.2 z"/>
        <path
                style="fill:#616161;fill-opacity:1"
                id="path145"
                d="m 135.7,299.7 c 5.5,-3.4 11.9,-14.8 4,-22.3 -8.3,-7.9 -17.2,-2.9 -21,0.1 0,0 -1.5,-4.3 2.9,-8.4 6.8,-6.3 21.5,-11.6 31.4,2 9,12.3 1.8,25.1 -7.1,28.5 -8.4,3.3 -10.2,0.1 -10.2,0.1 z"/>
        <path
                style="fill:#616161;fill-opacity:1"
                id="path147"
                d="m 175.6,303.9 -7,-7.5 c 10.8,-21.5 -1.4,-37.5 -1.4,-37.5 7.1,-12 23.5,-5.8 25.9,-4.5 2.8,1.5 9.3,6 11,21.8 z"/>
        <path
                style="fill:#616161;fill-opacity:1"
                id="path149"
                d="m 87.1,251.6 c 0,0 -13.3,-15.5 -28.8,-17.5 v -34 c 1.1,-8.3 4.4,-12.5 4.4,-12.5 5.7,-0.5 11.1,-8 11.1,-8 0,0 4.8,17.5 -2.4,27.5 0,0 -9.2,3.5 -8.1,13.4 1.3,12.1 11.3,13.6 23.8,9.6 0,0 7.1,5.3 6,15.3 z"/>
        <path
                style="fill:#616161;fill-opacity:1"
                id="path151"
                d="M 114.5,215.6 C 93.2,233 83.8,211.7 83.8,211.7 82.3,198.9 86.7,195 88.1,189.5 90.9,178.8 87.3,169.7 87.3,169.7 l 3.5,-3.7 c 8.2,10.2 9.1,28.3 13,36.5 3.5,7.4 10.7,13.1 10.7,13.1 z"/>
        <path
                style="fill:#616161;fill-opacity:1"
                id="path153"
                d="m 106.5,252.7 c 0,0 4.7,-7.8 9.8,-9.2 0,0 1.3,2.9 5.1,4.6 5.2,2.2 13.8,2.6 18.7,-6.2 4.4,-7.8 -1.9,-18.6 -10.3,-18.5 0,0 2.9,-9.1 -5.3,-22.3 0,0 2.1,-11.2 8.8,-13.7 0,0 4.9,6.6 15.6,11.4 6.4,2.9 20.5,7.8 20.5,7.8 -30.9,19.8 -15.6,41.2 -15.6,41.2 0,0 -16.9,13.8 -47.3,4.9 z"/>
        <path
                style="fill:#616161;fill-opacity:1"
                id="path155"
                d="m 217.5,264.7 c -12,-40.8 -49.3,-25.3 -49.3,-25.3 -3.2,-16.9 12.5,-24.7 12.5,-24.7 29,-2 48.2,39.7 48.2,39.7 z"/>
        <path
                style="fill:#616161;fill-opacity:1"
                id="path157"
                d="m 112.7,190 c 0,0 5.4,0 9.1,-14.5 0,0 -5,-4.3 -13.9,-32 -0.7,-2.2 -12.3,-29 -32.2,-40.3 0,0 -15.5,15.1 -17.5,40.6 v 30.4 c 6.5,1.3 15.6,-7 15.6,-7 0,0 -5.1,-12.4 5.6,-18.1 12.9,-6.9 21.7,6 21.7,6 0,0 8.9,11.1 6.1,20.8 0.1,-0.2 5,6.2 5.5,14.1 z"/>
    </g>
</svg>