<?xml version="1.0" standalone="no"?>
<!DOCTYPE svg PUBLIC "-//W3C//DTD SVG 20010904//EN"
 "http://www.w3.org/TR/2001/REC-SVG-20010904/DTD/svg10.dtd">
<svg version="1.0" xmlns="http://www.w3.org/2000/svg"
 width="512.000000pt" height="512.000000pt" viewBox="0 0 512.000000 512.000000"
 preserveAspectRatio="xMidYMid meet">
<metadata>
Created by potrace 1.15, written by Peter Selinger 2001-2017
</metadata>
<g transform="translate(0.000000,512.000000) scale(0.100000,-0.100000)"
fill="#000000" stroke="none">
<path d="M0 2560 l0 -2560 2560 0 2560 0 0 2560 0 2560 -2560 0 -2560 0 0
-2560z m4373 2355 c-6 -16 -73 -20 -107 -6 -11 4 -38 4 -60 -1 -68 -14 -89
-15 -146 -8 -37 5 -57 4 -62 -4 -6 -8 -8 -7 -8 1 0 7 -7 10 -15 7 -8 -4 -15
-1 -15 5 0 6 -9 11 -20 11 -35 0 -22 -17 48 -56 l67 -39 140 -3 c76 -2 141 -5
144 -7 5 -5 -121 -7 -374 -6 -82 1 -167 1 -187 1 -24 0 -38 5 -38 13 0 9 -2 9
-8 0 -13 -20 -114 -19 -150 2 -18 11 -32 22 -32 26 0 35 127 50 155 19 17 -18
30 -17 115 9 19 6 38 11 42 11 16 0 -11 -46 -33 -57 l-24 -13 23 0 c12 0 22 5
22 11 0 5 5 7 12 3 6 -4 17 1 25 11 12 17 13 17 13 2 0 -17 30 -24 43 -11 13
13 -14 44 -39 44 l-26 0 23 24 24 25 227 0 c195 0 226 -2 221 -14z m-98 -40
c48 -18 111 -19 121 -4 7 12 163 6 226 -7 22 -5 46 -40 34 -51 -5 -5 -267 -6
-272 0 -3 2 54 8 126 12 77 4 130 11 130 17 0 7 -34 8 -97 4 -143 -9 -219 -10
-231 -2 -6 3 -12 1 -14 -4 -2 -7 -28 -7 -81 1 -76 11 -105 29 -47 29 17 0 30
5 30 10 0 14 27 12 75 -5z m-997 -32 c-10 -2 -18 -14 -18 -26 0 -11 -5 -46
-12 -78 -16 -79 10 -181 53 -206 22 -13 30 -27 35 -60 3 -24 4 -54 1 -68 -2
-14 -1 -28 3 -30 5 -3 11 -33 15 -67 10 -92 31 -169 76 -272 21 -50 39 -98 39
-107 0 -10 25 -49 55 -87 37 -47 55 -80 55 -99 0 -15 11 -51 24 -79 20 -44 33
-56 91 -89 49 -27 74 -36 94 -32 21 5 42 -4 92 -39 35 -24 70 -44 77 -44 7 0
38 -13 70 -29 86 -43 167 -67 267 -81 50 -6 112 -16 138 -21 27 -5 59 -6 71
-3 18 4 29 -2 47 -24 16 -20 45 -36 92 -52 67 -22 69 -22 140 -5 40 10 78 22
85 28 11 9 13 -26 9 -199 -3 -115 -8 -222 -11 -239 -5 -27 -5 -27 3 -5 l9 25
1 -27 c1 -16 -3 -28 -9 -28 -14 0 -13 -46 1 -73 18 -32 12 -1410 -5 -1515 -29
-164 -77 -286 -168 -427 -47 -72 -192 -235 -209 -235 -6 0 -8 4 -5 9 3 4 -6 6
-19 3 -14 -2 -25 -8 -25 -12 0 -4 -25 -13 -55 -20 -30 -7 -72 -24 -92 -36 -38
-23 -38 -23 -10 -24 40 0 33 -23 -13 -43 -46 -20 -52 -30 -12 -22 24 5 23 4
-9 -14 -45 -25 -212 -81 -237 -80 -9 1 3 7 28 15 l45 14 -60 -6 c-33 -4 -69
-6 -79 -6 -11 1 -27 -3 -36 -8 -10 -6 -21 -5 -27 1 -13 13 -65 0 -56 -14 4 -6
0 -8 -8 -5 -8 3 -34 2 -59 -3 -31 -5 -13 -7 60 -4 75 3 97 2 75 -5 -17 -6
-233 -10 -505 -9 -261 0 -719 -3 -1018 -6 l-543 -6 14 23 c8 13 20 49 27 81
12 52 12 67 -4 125 -12 49 -25 74 -47 92 -33 28 -40 63 -11 54 14 -5 14 -4 3
4 -8 6 -16 21 -18 34 -2 13 -5 30 -6 38 -1 8 -5 20 -9 25 -4 6 -12 49 -18 95
-13 93 -35 168 -81 268 -16 36 -29 72 -29 81 0 9 -25 49 -55 89 -41 53 -54 78
-50 95 3 14 -7 43 -28 82 -26 47 -44 66 -83 87 -28 15 -70 30 -94 33 -24 3
-51 12 -60 20 -9 8 -22 15 -28 15 -7 0 -12 4 -12 9 0 5 -18 18 -40 30 -22 11
-40 19 -40 16 0 -3 -17 4 -37 15 -68 35 -131 59 -195 74 -70 17 -241 40 -304
40 -35 0 -45 5 -63 31 -17 25 -34 34 -88 47 -61 15 -75 15 -133 2 -36 -8 -73
-18 -82 -24 -15 -8 -17 -3 -16 50 0 33 5 60 9 60 5 0 9 10 9 23 0 18 2 19 10
7 14 -22 12 -8 -4 32 -17 39 -25 186 -12 207 5 8 4 16 -3 20 -7 5 -10 77 -9
236 2 226 2 230 25 255 29 31 39 67 26 90 -8 11 -7 21 3 35 7 10 11 28 8 40
-3 11 0 33 5 48 6 16 7 26 2 22 -5 -3 -12 -1 -16 5 -3 6 -17 8 -30 6 -23 -4
-23 -3 -24 90 -1 56 3 94 9 94 13 0 13 59 -1 99 -8 23 -8 39 -1 54 16 34 23
77 13 77 -5 0 -12 -10 -14 -22 -2 -13 -5 59 -6 160 -1 122 2 182 10 182 7 0 8
16 3 45 -7 53 4 164 16 146 5 -9 14 -4 29 18 18 24 21 38 15 68 -4 21 -12 41
-17 45 -8 5 -8 14 0 30 6 13 17 38 23 56 7 18 15 30 18 28 2 -3 19 2 36 11
l31 16 -25 10 c-14 6 -27 12 -29 13 -11 8 43 74 60 74 11 0 34 8 52 17 25 13
28 18 14 21 -14 3 -11 11 22 50 22 25 38 48 35 51 -2 3 -19 -12 -36 -33 -20
-25 -34 -34 -41 -27 -18 18 141 201 174 201 9 0 32 7 50 16 l34 15 -34 -5
c-29 -5 -32 -4 -21 9 21 26 127 94 203 131 158 77 242 95 502 112 133 8 1940
13 1913 5z m1246 -318 c20 -8 49 -15 65 -15 16 0 33 -5 36 -10 4 -6 11 -8 16
-5 5 4 9 1 9 -4 0 -14 -4 -14 -71 -1 -30 6 -71 11 -93 12 -44 0 -64 -19 -38
-38 14 -10 10 -12 -25 -8 -24 2 -43 -1 -43 -6 0 -6 21 -11 48 -11 61 -2 104
-11 109 -25 2 -7 -24 -6 -79 4 -92 15 -138 44 -123 79 5 12 9 14 12 6 3 -9 10
-10 22 -3 10 5 21 6 25 3 3 -3 6 -1 6 6 0 6 6 11 13 10 30 -4 36 2 33 36 -3
43 15 51 31 13 8 -17 26 -35 47 -43z m-233 34 c6 -3 11 -30 11 -59 1 -45 -2
-56 -23 -72 -13 -11 -58 -52 -99 -92 -41 -39 -131 -123 -199 -186 -118 -110
-124 -113 -138 -95 -29 38 -83 160 -103 234 -21 74 -43 258 -34 273 6 10 569
7 585 -3z m-735 -64 c8 -20 22 -19 27 3 2 9 7 -1 11 -23 32 -184 40 -221 45
-230 4 -5 18 -44 31 -85 14 -41 40 -97 58 -125 17 -27 32 -53 32 -56 0 -4 -23
-14 -52 -24 -52 -17 -52 -17 -71 7 -10 12 -29 36 -43 52 -31 36 -47 66 -36 66
4 0 17 8 28 18 10 10 28 24 39 31 20 12 20 12 0 6 -11 -4 -37 -9 -57 -12 -36
-5 -37 -5 -48 38 -14 52 -7 68 41 85 34 12 32 18 -6 14 -11 -1 -26 -7 -33 -12
-7 -6 -15 -8 -19 -5 -12 13 -20 91 -12 121 5 17 9 51 9 76 0 46 13 70 37 70 8
0 16 -7 19 -15z m1033 -247 c1 -18 3 -150 4 -293 l2 -260 -55 2 c-141 4 -317
50 -416 108 -40 23 -56 48 -36 57 4 2 36 35 72 73 106 114 253 274 285 311 27
31 34 34 86 34 l57 0 1 -32z m-759 -218 c8 -13 23 -31 33 -40 16 -14 14 -15
-28 -18 -45 -2 -45 -2 -80 52 -19 30 -35 58 -35 62 0 4 -12 36 -26 72 -14 35
-23 66 -21 68 9 10 36 -27 31 -41 -4 -10 0 -15 14 -15 24 0 23 22 -1 51 -10
11 -15 25 -11 31 4 6 30 -36 58 -93 28 -57 58 -115 66 -129z m115 -113 c31
-30 34 -36 18 -40 -14 -4 -13 -5 5 -6 27 -1 158 -89 154 -103 -1 -5 3 -8 10
-7 29 3 34 -2 30 -31 -5 -34 -19 -38 -48 -14 -10 8 -13 13 -6 9 6 -3 12 -1 12
4 0 6 -15 11 -32 11 -18 1 -42 6 -54 13 -46 27 -143 110 -138 118 3 5 0 9 -7
9 -14 0 -79 59 -79 71 0 4 22 6 49 4 41 -2 55 -8 86 -38z m163 -223 c42 -20
98 -42 125 -50 39 -12 47 -19 47 -39 0 -29 -1 -29 -69 -13 -43 10 -49 14 -40
29 11 22 11 29 0 29 -5 0 -13 -9 -16 -20 -7 -23 -32 -26 -60 -7 -26 18 -63 27
-81 20 -21 -8 -17 -21 8 -28 11 -4 42 -20 69 -35 26 -16 50 -26 53 -23 5 5
102 -15 119 -24 4 -3 3 -11 -4 -19 -9 -11 -8 -14 3 -14 8 0 19 5 25 11 7 7 25
6 62 -5 44 -13 51 -13 51 0 0 7 6 14 14 14 28 0 76 -13 76 -20 0 -11 -176 -24
-191 -14 -7 4 -29 8 -48 9 -58 3 -211 65 -211 86 0 5 -13 17 -30 27 -16 10
-26 23 -21 28 4 5 13 28 20 52 6 23 14 42 17 42 3 0 40 -16 82 -36z m-3338
-2070 c0 -13 7 -15 31 -12 24 4 33 1 36 -13 5 -16 6 -16 24 2 25 25 34 24 123
-10 46 -18 89 -43 112 -65 37 -36 37 -37 24 -75 -22 -66 -21 -66 -94 -31 -100
47 -199 78 -293 92 -45 7 -83 14 -83 18 0 3 -25 3 -55 2 -30 -2 -55 0 -55 4 0
15 52 74 60 69 5 -3 12 1 17 9 7 13 41 20 121 24 23 2 32 -2 32 -14z m-485
-352 c-3 -287 -2 -265 -17 -256 -10 6 -10 4 -2 -7 6 -8 14 -31 17 -51 5 -30 2
-39 -18 -54 -13 -10 -22 -21 -19 -25 2 -5 -5 -13 -16 -19 -22 -12 -24 -10 -34
47 -4 22 0 35 11 45 12 9 15 9 9 1 -10 -17 9 -17 23 0 12 15 5 27 -16 27 -8 0
-21 6 -29 14 -12 12 -12 19 1 50 8 19 15 46 15 60 0 13 4 26 10 28 6 2 4 14
-5 31 -16 30 -11 57 11 57 17 0 19 47 2 52 -8 3 -11 24 -9 62 2 46 0 56 -11
50 -14 -8 8 23 27 39 6 5 3 7 -7 3 -15 -4 -18 1 -16 32 0 20 -2 51 -6 69 -6
28 -5 32 16 35 15 3 31 -4 45 -19 21 -23 21 -30 18 -271z m618 175 c69 -24
103 -44 54 -32 -21 6 -27 4 -27 -8 0 -21 15 -29 59 -33 33 -3 35 -2 17 11 -32
24 -15 24 37 2 31 -14 46 -26 42 -35 -2 -7 0 -10 5 -7 21 13 157 -94 216 -171
40 -52 94 -136 94 -148 0 -3 -7 -6 -15 -6 -9 0 -15 9 -15 22 0 21 0 21 -14 2
-9 -12 -11 -21 -4 -25 5 -3 8 -17 6 -30 -4 -23 -5 -23 -17 6 -7 16 -16 32 -20
35 -4 3 -19 25 -33 50 -25 43 -139 154 -216 211 -45 33 -178 103 -212 112 -13
3 -21 9 -17 13 3 4 20 1 37 -6 17 -7 34 -9 38 -6 7 8 -23 29 -47 32 -13 3 -51
34 -40 34 3 0 36 -10 72 -23z m-205 -33 c60 -6 210 -49 227 -65 5 -5 15 -9 22
-9 7 0 34 -13 59 -29 l46 -28 -84 -89 c-47 -49 -136 -145 -198 -214 -63 -69
-119 -128 -124 -132 -14 -10 -116 -10 -116 0 0 4 -1 134 -3 290 -2 155 -1 285
2 288 3 3 29 2 58 -1 29 -3 79 -8 111 -11z m796 -274 c14 -22 31 -40 36 -40 8
0 46 -69 55 -100 1 -3 7 -25 14 -50 7 -25 17 -59 22 -76 5 -17 9 -41 9 -54 0
-22 -1 -23 -13 -5 -23 30 -37 9 -35 -50 1 -34 6 -51 13 -47 5 3 4 -1 -3 -10
-10 -13 -11 -22 -3 -37 16 -29 13 -51 -6 -51 -9 0 -13 -3 -10 -7 10 -9 -31
-35 -43 -28 -6 3 -10 25 -10 48 0 86 -41 267 -76 340 -8 16 -14 32 -14 37 0 4
-16 36 -35 70 -20 35 -34 64 -32 66 6 6 81 33 93 33 6 1 23 -17 38 -39z m-197
-107 c32 -53 74 -154 91 -223 14 -54 33 -242 26 -250 -3 -3 -137 -5 -297 -5
l-292 -1 -5 56 -5 55 110 106 c61 58 139 132 175 164 36 32 85 78 109 102 25
23 48 43 52 43 4 0 20 -21 36 -47z m8 -503 c61 -2 89 -5 63 -7 -27 -2 -48 -9
-48 -15 0 -7 -29 -9 -95 -4 -93 7 -95 7 -95 -15 0 -19 -4 -21 -37 -14 -21 4
-40 10 -43 15 -8 13 -78 22 -165 20 -53 0 -76 3 -70 9 6 6 76 12 155 13 156 3
168 3 335 -2z m-92 -216 c3 -4 0 -13 -8 -21 -17 -17 -20 -43 -5 -43 6 0 10 5
10 10 0 6 9 10 21 10 15 0 19 5 17 22 -3 22 -1 23 131 25 104 1 137 -2 148
-12 8 -8 22 -19 31 -24 15 -9 15 -11 0 -28 -13 -14 -31 -18 -85 -18 l-68 0 -3
33 c-4 39 -27 38 -27 -1 -1 -39 -17 -49 -73 -46 -38 3 -48 1 -40 -8 5 -7 35
-12 70 -12 33 0 62 -2 66 -5 3 -3 -40 -6 -96 -6 -84 0 -100 2 -96 14 4 11 -4
15 -35 14 -42 0 -55 -13 -23 -21 9 -3 -72 -5 -180 -6 -126 -1 -198 3 -198 9 0
6 7 10 15 10 8 0 15 5 15 10 0 13 66 13 90 0 15 -8 22 -5 35 12 15 22 14 23
-6 26 -12 2 -25 -1 -28 -7 -4 -6 -12 -7 -21 -1 -10 7 -11 10 -2 10 22 0 13 16
-10 17 -13 1 -32 6 -43 12 -11 5 -33 14 -50 19 -22 8 35 11 206 11 130 1 238
-2 242 -5z"/>
<path d="M2425 4539 c4 -5 -2 -9 -12 -9 -17 -1 -17 -1 -1 -11 13 -7 15 -15 9
-32 -4 -12 -6 -28 -4 -34 3 -7 0 -13 -6 -13 -6 0 -11 -8 -11 -19 0 -14 10 -21
37 -26 47 -9 112 -42 120 -60 3 -8 13 -15 23 -15 10 0 20 -9 23 -20 3 -12 14
-20 26 -20 12 0 21 -4 21 -10 0 -5 6 -10 14 -10 8 0 18 -5 22 -12 5 -7 3 -8
-6 -3 -9 5 -11 4 -6 -3 5 -8 35 -12 83 -11 64 1 76 4 80 19 6 21 36 36 41 21
2 -6 8 -11 13 -11 6 0 7 5 4 10 -3 6 1 10 9 10 9 0 16 7 16 15 0 8 4 15 9 15
18 0 57 47 56 68 -1 12 2 22 7 22 4 0 8 9 8 20 0 11 -4 20 -10 20 -5 0 -10 7
-10 15 0 8 5 15 10 15 6 0 10 9 10 21 0 11 -4 18 -9 15 -4 -3 -17 4 -27 15
-18 20 -28 21 -189 18 -94 -2 -176 1 -184 5 -7 5 -17 4 -23 -2 -6 -6 -26 -8
-44 -6 -19 2 -50 6 -69 8 -21 3 -33 1 -30 -5z"/>
<path d="M1450 4531 c-29 -5 -35 -10 -33 -29 2 -16 -2 -22 -17 -22 -11 0 -20
5 -20 10 0 6 -6 10 -13 10 -8 0 -28 7 -45 15 -25 13 -45 14 -104 7 l-73 -9 72
-2 c89 -1 183 -34 183 -63 0 -11 5 -16 10 -13 6 3 10 -1 10 -9 0 -8 -5 -18
-10 -21 -7 -4 -2 -14 11 -26 17 -15 38 -19 98 -19 42 -1 112 -8 156 -17 44 -9
108 -18 143 -20 53 -4 62 -2 62 12 0 9 9 19 20 22 11 3 20 11 20 18 0 20 30
26 75 13 49 -13 106 -13 208 3 52 8 77 16 77 25 0 7 9 18 20 24 21 11 28 40
10 40 -5 0 -10 14 -10 30 l0 30 -171 0 -171 0 4 -24 c4 -19 1 -22 -16 -18 -21
5 -21 5 -2 -16 19 -22 19 -22 -12 -22 -17 0 -46 9 -64 20 -23 14 -27 20 -15
20 10 0 15 5 12 10 -3 6 -15 10 -26 10 -10 0 -19 5 -19 10 0 11 -310 12 -370
1z"/>
<path d="M3080 4522 c0 -9 -9 -23 -20 -30 -23 -14 -27 -34 -6 -26 18 7 10 -33
-12 -58 -8 -10 -14 -35 -13 -60 0 -37 -4 -47 -35 -74 -32 -27 -36 -37 -39 -86
-3 -49 0 -59 22 -79 32 -31 63 -91 63 -124 0 -18 5 -25 20 -25 11 0 23 -7 27
-16 3 -8 12 -13 19 -10 8 3 14 1 14 -4 0 -6 18 -10 40 -10 22 0 40 4 40 8 0 5
18 14 40 21 21 6 42 15 45 20 9 16 -7 71 -21 71 -7 0 -16 16 -20 36 -5 28 -3
39 10 46 24 13 20 25 -14 37 -34 12 -40 36 -9 44 11 3 19 11 18 19 -1 7 -1 20
0 28 1 13 2 13 11 0 5 -8 10 -10 10 -4 0 6 -7 17 -15 24 -8 7 -15 19 -15 26 0
8 -4 22 -10 32 -15 27 -28 109 -20 123 5 6 4 17 -1 23 -5 6 -18 23 -30 39 -16
21 -29 27 -60 27 -31 0 -39 -4 -39 -18z"/>
<path d="M1236 4463 c-3 -3 -26 -5 -51 -5 -63 3 -145 -25 -145 -48 0 -30 -11
-50 -27 -50 -12 0 -13 -9 -8 -42 4 -31 3 -39 -4 -28 -11 16 -15 8 -11 -24 1
-13 -3 -17 -14 -13 -9 4 -16 2 -16 -3 0 -5 -21 -12 -46 -16 -25 -3 -48 -13
-51 -20 -3 -8 -11 -14 -19 -14 -8 0 -14 -4 -14 -10 0 -5 4 -10 8 -10 7 0 104
-95 177 -175 59 -63 118 -165 96 -165 -5 0 -12 11 -15 25 -4 14 -48 71 -99
127 -50 56 -108 120 -129 142 l-36 41 -13 -28 c-9 -20 -15 -24 -21 -15 -4 8
-6 0 -2 -17 5 -28 4 -30 -28 -31 -23 -1 -44 -11 -72 -37 -22 -21 -44 -37 -48
-37 -4 0 -8 -15 -8 -32 0 -18 -4 -40 -10 -48 -6 -9 -5 -20 3 -29 10 -12 9 -14
-5 -8 -10 3 -20 1 -24 -5 -4 -6 -3 -8 3 -5 13 8 10 -39 -5 -98 -6 -22 -13 -64
-17 -92 -4 -29 -11 -53 -16 -53 -12 0 -12 -37 0 -45 5 -3 9 -38 9 -78 0 -39 3
-79 6 -87 3 -8 4 -24 3 -35 -2 -16 7 -21 53 -29 30 -5 47 -11 38 -13 -22 -5
-24 -23 -3 -23 9 0 3 -11 -18 -31 -17 -17 -31 -37 -29 -45 1 -7 -8 -20 -21
-28 -23 -16 -23 -17 -25 -236 l-2 -221 23 -8 c13 -5 29 -16 36 -25 7 -9 19
-16 26 -16 7 0 16 -7 19 -15 3 -9 22 -23 41 -31 19 -8 35 -19 35 -24 0 -6 9
-10 20 -10 13 0 20 -7 20 -19 0 -12 9 -20 24 -23 19 -4 23 -1 18 11 -4 13 -1
12 16 -3 20 -17 23 -17 44 -3 63 45 73 67 62 147 -4 34 -11 50 -21 50 -8 0
-17 8 -20 19 -6 23 -64 34 -124 25 -51 -8 -86 9 -94 47 -4 16 -11 31 -16 34
-17 11 -9 25 14 25 20 0 24 5 22 30 -1 21 4 31 17 36 10 3 18 12 18 20 0 9 11
14 36 14 19 0 33 -4 29 -9 -3 -5 0 -13 5 -16 6 -4 10 -17 9 -28 -4 -53 1 -77
17 -77 9 0 18 -9 21 -20 3 -12 14 -20 27 -21 152 -6 184 -4 179 8 -3 7 -1 13
5 13 5 0 24 13 41 29 36 34 40 70 11 96 -11 10 -20 26 -20 37 0 10 -6 18 -14
18 -15 0 -58 74 -49 84 3 3 1 11 -4 18 -11 14 -27 80 -27 115 0 12 -4 20 -8
17 -4 -3 -9 3 -9 13 -5 56 -2 68 15 71 12 3 17 -2 16 -15 -5 -48 3 -67 45
-109 25 -24 45 -48 45 -54 0 -15 30 -12 36 4 9 24 66 16 93 -12 22 -24 22 -26
5 -39 -10 -7 -13 -13 -7 -13 7 0 5 -20 -5 -56 -15 -52 -15 -57 1 -66 10 -5 15
-13 12 -18 -7 -11 15 -60 27 -60 4 0 8 -17 8 -38 0 -32 5 -41 25 -50 14 -6 25
-19 25 -27 0 -9 5 -26 11 -38 14 -26 19 -87 7 -87 -4 0 -8 -6 -8 -14 0 -19
-64 -29 -163 -24 -68 3 -77 1 -85 -17 -23 -51 -32 -77 -27 -84 13 -22 101 -33
218 -29 102 5 131 9 179 31 31 14 62 36 69 49 18 33 16 107 -4 147 -21 42 -21
61 -2 87 8 10 15 27 15 37 0 12 8 17 28 17 26 1 88 28 67 30 -5 1 0 5 12 10
14 6 21 15 17 24 -4 11 0 13 15 9 12 -3 21 -11 21 -18 0 -7 6 -16 13 -18 10
-4 10 -6 0 -6 -8 -1 -13 -15 -13 -35 0 -28 -4 -35 -22 -38 -23 -3 -44 -53 -27
-64 5 -3 9 -25 9 -49 0 -24 4 -47 10 -50 5 -3 27 -1 47 4 53 15 154 -3 228
-41 61 -31 138 -95 129 -109 -2 -4 1 -11 6 -14 6 -4 15 -18 20 -31 6 -14 18
-27 27 -31 10 -4 21 -11 24 -16 8 -12 101 31 94 43 -3 4 3 14 13 21 16 13 16
13 2 -5 -13 -17 -13 -19 0 -14 10 3 14 17 13 41 -1 26 2 37 13 37 8 0 14 3 14
6 0 16 -64 115 -84 131 -12 10 -23 21 -24 26 -1 4 -4 6 -6 5 -6 -4 -55 44 -53
51 1 3 -2 7 -6 8 -5 0 -21 12 -35 26 -62 57 -145 100 -268 138 -69 22 -124 43
-121 46 3 2 37 0 76 -6 39 -6 121 -11 183 -12 l112 0 86 -69 c90 -72 169 -150
190 -189 8 -15 8 -21 1 -17 -16 10 -13 -6 5 -33 13 -18 14 -25 4 -31 -10 -6
-10 -12 0 -26 8 -14 10 -14 7 -3 -6 18 23 21 36 4 13 -18 2 29 -16 64 -14 27
-14 31 -1 20 8 -7 27 -14 41 -15 20 -2 24 1 20 17 -3 10 -1 19 5 19 6 0 8 6 5
14 -7 18 15 27 34 15 19 -12 62 -11 54 1 -3 5 10 24 29 41 41 35 44 49 17 73
-11 10 -17 24 -14 32 3 9 -1 14 -13 14 -10 0 -27 8 -38 19 -24 21 -124 91
-130 91 -3 0 -29 14 -58 31 -38 22 -70 33 -113 36 -51 5 -64 10 -89 37 -22 23
-31 27 -34 16 -3 -7 0 -16 7 -18 6 -2 11 -11 11 -20 0 -8 39 -54 88 -101 56
-55 69 -71 37 -46 -27 22 -81 70 -120 107 -38 38 -75 68 -82 68 -7 0 -13 3
-13 8 0 4 -19 6 -41 4 -48 -5 -34 -22 19 -22 26 0 47 -13 108 -70 41 -38 112
-101 157 -138 45 -38 89 -77 97 -88 8 -10 -21 12 -65 48 -44 37 -82 63 -85 58
-3 -5 -28 11 -54 35 -27 24 -53 42 -58 39 -5 -3 -15 0 -23 6 -8 7 -26 10 -40
8 -13 -3 -26 0 -28 6 -3 7 -9 6 -21 -3 -9 -8 -19 -11 -23 -7 -3 3 0 6 7 6 7 0
10 3 7 6 -4 4 -13 2 -20 -5 -17 -14 -143 -15 -212 -2 -27 5 -76 14 -107 20
-92 16 -190 56 -261 106 -37 25 -69 51 -72 56 -4 5 -10 7 -15 4 -14 -9 -90 71
-90 95 0 20 3 19 29 -14 29 -36 89 -89 122 -107 9 -4 -21 30 -66 76 -46 46
-93 105 -105 130 -12 24 -25 47 -29 49 -4 3 -20 38 -35 78 -16 40 -45 111 -65
157 -48 111 -47 108 -28 92 10 -7 17 -18 17 -23 0 -13 90 -206 111 -238 9 -14
31 -51 50 -83 41 -70 103 -147 144 -178 23 -18 21 -13 -12 23 -55 60 -128 175
-165 258 -16 36 -42 92 -58 125 -15 33 -40 86 -55 119 -15 32 -50 87 -77 122
-26 35 -45 64 -42 64 17 0 78 -82 116 -157 23 -46 45 -83 50 -83 9 0 33 -51
74 -158 15 -40 32 -75 36 -78 5 -3 2 11 -7 33 -31 73 -46 125 -41 139 3 9 1
12 -5 9 -6 -4 -8 4 -4 22 4 20 3 23 -3 9 -5 -12 -8 13 -8 67 0 48 3 87 8 87 4
0 7 3 6 8 -3 7 38 52 48 52 3 0 -5 -13 -19 -30 -14 -16 -28 -42 -32 -58 -7
-32 6 -99 29 -152 18 -42 20 -32 5 30 -19 75 -17 119 4 126 14 5 16 9 6 20
-10 12 -9 13 6 8 16 -7 17 -3 11 43 l-6 51 50 7 c37 5 62 17 93 42 53 44 62
60 47 79 -10 11 -8 14 11 14 23 1 23 1 4 12 -11 6 -22 14 -25 17 -3 3 -14 11
-25 17 -11 6 -20 21 -20 32 0 11 -3 24 -7 28 -5 4 -8 17 -8 29 0 11 -6 27 -12
34 -10 11 -10 14 -1 18 10 4 9 11 -2 34 -9 16 -13 29 -9 29 3 0 -8 14 -26 30
-18 17 -36 30 -41 30 -5 0 -9 6 -9 14 0 17 -14 28 -24 19z m-266 -924 c29 -22
55 -73 44 -90 -3 -5 2 -9 10 -9 9 0 16 -4 16 -9 0 -14 -89 -18 -94 -4 -3 6 5
14 17 16 12 2 3 4 -20 4 -33 1 -47 -5 -65 -26 -28 -32 -50 -89 -37 -97 14 -8
11 -71 -4 -77 -19 -7 -41 8 -33 22 5 7 -1 11 -15 11 -18 0 -21 4 -17 30 3 21
1 29 -7 26 -6 -2 -17 5 -23 15 -10 16 -9 19 3 19 8 0 15 9 15 20 0 11 6 23 14
26 8 3 13 11 10 18 -3 7 5 25 18 41 12 16 23 34 23 40 1 55 84 69 145 24z"/>
<path d="M2372 4323 c-21 -3 -32 -9 -29 -17 3 -6 -1 -20 -9 -31 -8 -10 -14
-29 -14 -42 0 -13 -8 -27 -17 -30 -10 -4 -24 -12 -31 -19 -15 -15 -81 -7 -100
13 -8 7 -22 18 -32 23 -10 5 -20 20 -22 32 -4 31 -42 34 -116 12 -42 -13 -93
-18 -199 -18 -79 -1 -143 3 -143 7 0 4 -8 4 -17 -1 -10 -5 -33 -7 -50 -5 -40
6 -43 -8 -10 -57 18 -26 35 -37 73 -46 27 -7 67 -17 89 -23 22 -5 44 -16 50
-24 6 -8 24 -17 41 -21 16 -4 56 -24 88 -45 51 -34 62 -38 104 -33 26 3 50 9
54 15 3 6 21 11 40 13 18 1 67 7 108 13 41 7 100 12 132 11 31 -1 79 7 108 16
42 14 51 21 49 38 -1 11 3 34 10 51 7 16 9 41 5 55 -4 14 -8 32 -9 40 -3 26
-54 69 -88 73 -17 3 -47 2 -65 0z"/>
<path d="M2760 4090 c0 -6 -7 -10 -15 -10 -22 0 -95 -48 -102 -67 -4 -9 1 -21
11 -28 9 -7 14 -19 11 -26 -3 -9 15 -35 45 -64 31 -31 50 -58 50 -72 0 -13 3
-23 8 -23 24 0 44 -112 22 -125 -12 -7 6 -28 33 -38 11 -4 17 -15 16 -29 -4
-46 0 -56 21 -51 11 3 20 11 20 18 0 8 7 15 16 17 9 2 26 19 38 39 11 20 30
48 40 63 23 33 34 129 17 150 -6 7 -8 26 -5 42 4 23 -1 38 -25 68 -17 21 -28
43 -25 48 11 18 -64 78 -96 78 -16 0 -40 4 -54 10 -17 6 -26 6 -26 0z"/>
<path d="M1563 4003 c-7 -2 -13 -11 -13 -18 0 -17 -104 -109 -108 -95 -6 17
-31 11 -42 -10 -7 -13 -21 -20 -40 -20 -35 0 -80 -39 -80 -69 0 -61 195 -309
241 -308 14 0 16 11 13 81 -5 81 -4 82 33 136 50 71 72 82 147 75 82 -9 114
-27 138 -82 25 -58 19 -116 -18 -173 -27 -41 -92 -80 -135 -80 -13 0 -31 -5
-39 -10 -12 -8 -9 -15 19 -44 55 -57 195 -116 332 -140 32 -6 39 -3 76 37 56
60 60 78 23 106 -17 12 -28 26 -25 32 4 5 -8 24 -26 42 -29 28 -36 46 -56 147
-32 152 -61 214 -134 281 -84 78 -246 137 -306 112z"/>
<path d="M2274 3931 c-17 -10 -52 -46 -78 -79 l-46 -60 11 -64 c6 -35 13 -96
16 -136 4 -69 6 -74 36 -93 27 -16 51 -19 148 -19 91 0 118 3 122 14 3 8 21
17 39 21 18 4 38 12 45 17 6 5 17 8 25 7 28 -3 49 1 43 10 -3 6 15 30 40 55
l45 46 -16 37 c-9 21 -18 44 -21 51 -8 19 -63 78 -64 69 -1 -4 -3 -11 -4 -17
-1 -5 -3 -14 -4 -19 0 -5 -11 -7 -23 -3 -12 3 -19 1 -15 -5 3 -5 -7 -25 -23
-45 -22 -27 -41 -37 -86 -47 -52 -12 -59 -11 -83 6 -34 25 -61 79 -61 123 0
31 12 56 52 112 15 21 9 28 -33 34 -23 3 -44 -1 -65 -15z"/>
<path d="M3211 3902 c-19 -3 -21 -6 -10 -13 10 -6 8 -9 -10 -9 -13 0 -22 -3
-18 -6 9 -9 -19 -34 -37 -34 -9 0 -16 -5 -16 -11 0 -6 -7 -17 -15 -25 -8 -8
-17 -31 -20 -52 -6 -35 -17 -67 -36 -105 -5 -10 -11 -40 -14 -67 -2 -27 -8
-58 -14 -67 -7 -13 -5 -25 6 -44 23 -38 47 -51 78 -39 15 6 50 10 80 10 29 0
55 3 57 8 8 19 117 102 134 102 14 0 15 3 6 9 -10 6 -10 10 2 20 12 10 15 9
19 -6 4 -17 5 -17 6 0 0 9 5 17 11 17 5 0 7 7 4 15 -4 9 3 16 20 21 29 7 33
29 11 58 -8 10 -12 24 -8 30 3 6 3 8 -2 4 -4 -4 -19 16 -32 45 -31 66 -79 117
-111 117 -21 0 -22 2 -12 15 9 11 9 15 1 15 -6 0 -14 -7 -17 -15 -7 -18 -31
-20 -36 -2 -2 6 -14 10 -27 9z"/>
<path d="M2829 3508 c-1 -7 -1 -16 0 -20 0 -5 -6 -8 -14 -8 -26 0 -28 -28 -6
-56 12 -15 21 -32 21 -38 0 -6 -4 -5 -9 3 -6 10 -9 0 -7 -30 4 -78 -42 -143
-101 -141 -44 2 -113 32 -113 49 0 7 -9 13 -19 13 -12 0 -23 9 -27 23 -9 28
-22 37 -57 37 -50 0 -67 -16 -67 -63 0 -72 8 -84 83 -128 66 -39 160 -123 150
-133 -2 -2 6 -7 19 -11 13 -3 34 -12 47 -18 19 -9 25 -9 28 1 3 6 11 12 19 12
18 0 54 31 48 41 -2 4 14 20 36 36 44 30 94 73 86 73 -3 0 5 11 18 25 13 14
30 25 38 25 19 0 38 20 38 41 0 9 10 23 22 31 21 14 21 16 6 32 -9 9 -20 25
-23 36 -6 20 -14 23 -73 22 -26 0 -37 6 -56 35 -14 19 -22 42 -19 49 3 8 0 28
-7 44 -9 21 -19 30 -36 30 -13 0 -25 -6 -25 -12z"/>
<path d="M3652 3371 c-27 -20 -47 -42 -44 -49 2 -7 -1 -12 -8 -12 -6 0 -25
-10 -43 -22 -18 -13 -34 -24 -36 -25 -2 -2 -2 -5 0 -8 3 -2 18 2 33 10 36 19
39 19 24 -4 -6 -10 -17 -17 -24 -14 -7 2 -11 -3 -11 -14 1 -11 -10 -23 -30
-32 -31 -14 -46 -41 -23 -41 6 0 23 -12 38 -27 15 -15 36 -29 47 -30 10 -2 22
-8 26 -14 3 -5 31 -13 62 -16 49 -5 57 -3 57 11 0 12 10 16 40 16 22 0 40 -4
40 -9 0 -5 23 -11 50 -15 45 -6 58 -14 120 -74 46 -45 70 -75 70 -91 0 -12 7
-29 15 -37 9 -9 15 -34 15 -59 0 -28 5 -47 14 -52 8 -4 16 -24 18 -43 5 -53
39 -53 87 -1 34 37 38 46 36 88 -2 27 -5 55 -8 63 -3 8 -8 29 -12 45 -8 38
-52 132 -65 140 -6 3 -10 15 -10 25 0 10 -7 25 -15 34 -10 9 -15 34 -15 71 0
39 -4 55 -12 53 -32 -6 -168 55 -168 75 0 19 -47 60 -59 52 -6 -3 -11 -2 -11
4 0 19 -55 39 -103 39 -38 -1 -56 -8 -95 -37z"/>
<path d="M4496 3274 c-18 -25 -18 -28 -2 -60 9 -19 16 -39 16 -44 0 -11 -101
-13 -137 -4 -13 4 -20 10 -17 15 3 5 -4 9 -15 9 -12 0 -21 -4 -21 -9 0 -4 -11
-6 -24 -4 -47 9 -75 -99 -40 -152 22 -34 37 -112 39 -203 1 -45 5 -85 9 -89
12 -13 6 -53 -9 -53 -8 0 -15 -9 -15 -19 0 -10 7 -21 15 -25 8 -3 15 -12 15
-19 0 -8 17 -27 38 -42 20 -16 42 -35 49 -43 7 -8 31 -15 58 -16 55 -1 78 -26
51 -55 -10 -11 -14 -25 -10 -36 6 -15 -1 -13 -42 10 -84 48 -95 56 -89 65 3 5
-9 15 -27 24 -32 14 -57 15 -88 3 -8 -3 -26 -7 -40 -9 -19 -2 -24 -8 -23 -26
2 -12 -2 -22 -7 -22 -6 0 -10 -10 -10 -22 0 -33 22 -88 36 -88 6 0 14 -7 18
-15 3 -8 17 -20 31 -27 14 -6 25 -17 25 -24 0 -13 58 -26 116 -26 19 0 34 -1
35 -1 0 -1 2 -22 5 -47 4 -38 1 -49 -19 -71 -13 -14 -30 -41 -36 -61 -19 -57
-50 -31 -51 42 -1 25 -30 75 -30 52 0 -10 -3 -10 -14 0 -8 7 -11 17 -6 22 16
16 -9 48 -31 41 -11 -4 -26 -2 -33 5 -8 6 -22 12 -32 14 -83 16 -104 17 -104
7 0 -6 -7 -11 -15 -11 -9 0 -20 -12 -25 -26 -6 -14 -19 -28 -29 -31 -29 -7
-18 -63 24 -123 19 -28 44 -78 55 -112 40 -129 53 -184 51 -210 -1 -16 2 -28
7 -28 5 0 14 -10 20 -22 6 -13 11 -17 11 -9 1 10 6 10 26 -3 19 -13 30 -14 45
-6 11 6 20 14 20 19 0 4 7 8 15 8 8 0 15 -3 15 -6 0 -3 12 -7 26 -7 30 -2 43
-12 28 -22 -6 -4 -16 -20 -21 -37 -6 -16 -16 -29 -22 -27 -8 1 -8 -4 1 -18 18
-29 1 -37 -26 -11 -13 12 -36 26 -52 31 -28 8 -28 8 11 10 l40 2 -35 8 c-22 5
-37 5 -41 -2 -13 -21 -112 52 -117 87 -6 47 -10 62 -26 90 -9 17 -16 35 -16
40 -1 6 -12 24 -26 40 -25 30 -25 30 -42 10 -9 -11 -25 -19 -36 -17 -11 2 -23
-3 -28 -13 -9 -15 -12 -15 -34 6 -29 27 -30 39 -6 39 17 0 18 8 16 80 -3 105
-12 157 -30 164 -9 4 -14 21 -14 52 0 40 -6 52 -44 96 -55 63 -66 111 -33 146
18 20 28 23 59 18 21 -4 53 -14 72 -22 27 -13 40 -14 65 -6 25 9 31 8 31 -3 0
-20 29 -8 59 22 20 21 22 30 14 56 -7 26 -16 33 -58 44 -28 7 -69 13 -92 13
-24 0 -43 5 -43 10 0 6 -9 10 -19 10 -10 0 -21 7 -25 15 -7 20 -75 20 -82 0
-4 -8 -10 -13 -14 -10 -4 3 -10 -4 -13 -15 -4 -17 -2 -18 14 -9 11 5 19 6 19
0 0 -11 -25 -21 -56 -21 -13 0 -24 -4 -24 -9 0 -5 -14 -12 -30 -16 -50 -11
-57 -25 -59 -130 -1 -57 -8 -112 -16 -131 -8 -19 -11 -34 -8 -34 4 0 -2 -7
-13 -15 -10 -8 -15 -15 -11 -15 5 0 1 -7 -7 -16 -9 -8 -16 -22 -16 -29 0 -20
-58 -48 -78 -39 -10 4 -23 6 -31 5 -7 -1 -20 0 -28 3 -12 5 -13 9 -4 20 8 10
9 16 1 21 -12 7 48 75 67 75 23 0 33 38 27 95 -8 65 -21 80 -58 65 -25 -9 -82
-8 -156 5 -40 6 -130 33 -115 34 5 1 -13 23 -40 50 -80 78 -115 119 -115 134
0 8 -6 20 -14 26 -12 10 -27 0 -83 -55 -51 -51 -64 -69 -51 -72 9 -2 22 -19
28 -38 7 -19 42 -81 80 -138 57 -86 78 -110 131 -144 73 -48 68 -57 -7 -11
-56 35 -154 127 -154 145 0 10 -57 141 -66 153 -2 2 -10 -1 -17 -7 -8 -7 -17
-9 -20 -5 -4 3 -17 -5 -30 -19 -12 -13 -28 -23 -35 -20 -16 5 -16 -20 1 -37
10 -10 9 -11 -5 -6 -37 14 -28 4 91 -109 75 -71 75 -87 -1 -19 -67 60 -106 88
-138 98 -17 5 -10 -3 20 -23 25 -17 65 -49 90 -72 l45 -42 -60 45 c-70 52
-125 82 -125 67 0 -5 5 -10 10 -10 14 0 111 -73 105 -78 -2 -3 -12 1 -21 9 -9
7 -28 13 -42 14 -18 0 -31 8 -39 25 -7 14 -13 21 -13 16 0 -4 -12 -1 -26 9
-20 13 -32 15 -48 7 -11 -6 -34 -13 -49 -17 -22 -4 -28 -11 -25 -28 1 -12 -1
-27 -5 -33 -10 -17 15 -43 120 -127 127 -101 210 -142 291 -143 49 -1 68 -6
86 -23 25 -24 54 -25 111 -5 38 13 31 13 -46 -3 -29 -5 -42 10 -16 20 9 4 9 6
0 6 -7 1 -10 8 -7 16 4 8 -1 17 -9 21 -9 3 -13 12 -10 20 3 9 -18 35 -56 70
-34 32 -61 65 -61 76 0 16 3 17 20 8 11 -6 20 -18 20 -26 0 -8 5 -12 10 -9 13
8 72 -34 64 -46 -8 -13 103 -61 151 -65 22 -2 84 -6 137 -8 107 -6 177 -20
193 -40 6 -7 30 -22 55 -33 25 -12 68 -42 95 -68 28 -26 74 -63 102 -82 45
-31 59 -49 99 -127 25 -50 40 -85 33 -78 -7 7 -27 40 -44 75 -21 41 -46 72
-73 92 -22 17 -70 51 -105 77 -111 80 -244 135 -317 130 -20 -1 -22 0 -10 9
12 9 12 10 -3 5 -10 -3 -20 -6 -23 -6 -2 0 -1 -7 2 -15 4 -8 10 -12 15 -10 5
3 19 -1 33 -10 16 -11 26 -13 31 -6 3 6 14 11 23 11 15 0 15 -2 2 -11 -12 -9
-12 -10 4 -5 11 4 22 3 25 -1 9 -12 132 -63 126 -52 -10 14 9 11 31 -7 16 -13
16 -15 2 -10 -27 8 -22 0 15 -25 21 -16 27 -17 18 -6 -23 29 -3 19 70 -35 59
-44 77 -64 105 -121 19 -37 32 -73 28 -79 -4 -6 -3 -8 3 -5 6 4 13 0 16 -8 4
-9 1 -12 -10 -8 -13 5 -13 3 1 -25 9 -17 16 -35 16 -39 0 -4 -20 30 -45 76
-24 47 -57 95 -72 107 -43 36 -48 28 -8 -13 36 -37 89 -122 81 -130 -3 -3 -11
8 -19 24 -25 46 -109 114 -124 100 -3 -3 9 -13 26 -21 16 -9 42 -31 56 -50 36
-48 75 -149 74 -193 -1 -35 -2 -34 -9 13 -10 65 -54 144 -104 183 -21 17 -43
31 -47 31 -14 0 -10 -20 4 -20 12 -1 48 -30 79 -66 21 -24 53 -98 39 -89 -6 3
-11 11 -11 16 0 18 -84 101 -122 120 -21 10 -50 18 -65 18 -20 -1 -22 -3 -9
-6 14 -4 16 -7 6 -13 -10 -6 -11 -17 -2 -53 16 -62 6 -99 -40 -152 -51 -58
-73 -69 -128 -66 -55 3 -108 32 -138 75 -31 45 -31 135 0 179 36 51 59 66 122
79 94 20 89 41 -31 112 -74 44 -118 57 -231 71 -55 7 -78 28 -51 46 10 6 4 8
-18 7 -22 -1 -29 -6 -23 -12 17 -17 11 -41 -15 -64 -14 -13 -30 -35 -36 -50
-9 -24 -7 -29 25 -55 20 -16 36 -35 36 -43 0 -8 4 -14 9 -14 16 0 45 -95 55
-180 11 -91 41 -162 97 -227 45 -51 135 -123 155 -123 6 0 34 -7 60 -14 27 -8
61 -18 77 -21 15 -3 27 -11 27 -18 0 -8 19 -12 57 -12 53 0 58 -2 61 -23 3
-20 0 -22 -25 -17 -27 6 -28 6 -5 -7 26 -16 72 -80 72 -102 0 -8 6 -19 13 -23
21 -13 60 -73 47 -73 -6 0 -8 -5 -3 -12 8 -13 13 -33 15 -55 1 -7 8 -13 15
-13 8 0 13 -8 12 -18 -3 -35 2 -42 30 -42 34 0 48 -25 23 -39 -12 -7 3 -8 48
-4 36 3 71 5 78 6 15 0 67 52 67 66 0 4 14 20 32 35 37 32 52 84 34 123 -10
23 -10 25 2 14 42 -34 150 38 181 121 l18 48 28 -15 c27 -14 29 -13 57 18 15
18 37 49 48 70 11 20 25 37 32 37 7 0 15 12 19 28 3 15 8 34 11 42 2 8 7 30 9
48 2 19 13 52 24 75 14 28 17 43 9 48 -7 4 -4 9 7 13 16 6 16 8 -2 22 -18 14
-18 15 4 9 13 -4 22 -2 22 4 0 6 -7 11 -15 11 -18 0 -21 54 -5 95 7 18 7 24 0
20 -7 -4 -10 7 -10 32 1 21 -2 61 -7 88 -7 41 -12 49 -27 47 -13 -2 -17 1 -13
11 3 8 -1 24 -10 36 -11 16 -12 25 -4 35 7 9 7 16 -2 26 -9 10 -9 11 1 6 7 -4
12 -1 12 8 0 9 4 16 8 16 8 0 19 54 41 205 5 33 13 61 18 62 4 2 7 31 6 65 -2
52 -8 70 -33 107 -22 31 -28 47 -21 54 14 14 14 30 0 21 -21 -12 -29 20 -12
45 11 18 13 26 5 29 -20 6 -13 22 9 22 12 0 23 8 26 20 3 11 12 20 19 20 17 0
18 12 2 28 -9 9 -9 12 -1 12 8 0 11 28 10 88 -1 48 1 99 6 115 6 21 4 27 -8
27 -20 0 -19 10 2 25 13 10 14 16 6 26 -15 19 -26 99 -27 192 -1 71 -3 79 -28
100 -14 12 -34 37 -43 56 -16 32 -16 34 6 57 12 13 18 24 13 24 -5 0 -17 -12
-28 -26z"/>
<path d="M3383 3063 c-13 -8 -23 -11 -23 -5 0 6 -9 8 -20 5 -11 -3 -20 -9 -20
-13 0 -5 -9 -12 -20 -15 -11 -4 -20 -15 -20 -26 0 -16 -4 -19 -22 -14 -17 6
-20 4 -15 -9 4 -10 3 -14 -3 -11 -13 8 -90 -73 -90 -96 0 -10 -5 -21 -10 -24
-6 -4 -18 -24 -26 -45 -8 -20 -25 -42 -37 -48 l-22 -11 21 0 c24 -1 34 -19 34
-60 0 -31 43 -96 84 -129 35 -27 126 -39 186 -23 25 7 58 25 74 41 28 28 29
30 13 48 -9 10 -17 34 -17 53 0 20 -5 61 -10 92 -8 39 -8 63 -1 76 6 10 14 51
17 90 6 60 5 71 -8 71 -18 0 -32 26 -29 53 3 21 -7 21 -36 0z"/>
<path d="M3678 3033 c-1 -5 -20 -21 -41 -36 -76 -57 -99 -157 -57 -240 11 -21
20 -46 20 -57 0 -13 7 -20 19 -20 10 0 38 -9 62 -20 24 -11 62 -20 84 -20 22
0 60 9 84 20 24 11 48 20 55 20 14 1 58 99 50 112 -3 5 -12 4 -20 -3 -11 -9
-14 -9 -14 0 0 9 -13 10 -47 5 -82 -13 -91 -9 -125 52 -15 27 -15 33 -2 58 7
16 14 41 14 57 0 16 7 32 17 37 10 6 14 16 10 26 -5 12 -19 16 -56 16 -27 0
-51 -3 -53 -7z"/>
<path d="M620 2616 l-35 -13 -3 -99 c-2 -57 -7 -101 -14 -105 -6 -4 -7 -12 -2
-20 14 -23 15 -281 1 -308 -9 -19 -9 -25 0 -28 7 -3 15 -19 19 -37 l6 -33 91
-7 c51 -3 115 -9 142 -12 47 -5 52 -4 64 20 8 14 18 23 23 20 16 -10 30 7 18
21 -7 8 -9 19 -5 24 3 6 -7 39 -24 74 -16 34 -33 78 -36 97 -3 19 -10 37 -16
38 -5 2 -6 8 -3 14 10 16 13 178 3 178 -5 0 -9 15 -9 34 0 26 -10 44 -42 78
-75 78 -107 90 -178 64z"/>
<path d="M1807 2605 c-9 -8 -23 -15 -32 -15 -22 0 -66 -24 -88 -48 -15 -16
-16 -24 -7 -41 6 -12 7 -21 1 -21 -5 0 -7 -9 -4 -20 3 -11 10 -20 17 -20 6 0
12 -10 14 -22 12 -111 13 -138 4 -138 -6 0 -10 -19 -10 -42 0 -24 -1 -50 -3
-58 -6 -37 2 -91 12 -85 5 4 19 -1 30 -10 18 -17 21 -16 75 21 31 21 72 48 91
58 19 12 32 25 29 33 -3 7 0 13 7 13 18 1 57 36 57 52 0 7 9 19 20 26 11 7 20
21 20 31 0 11 5 23 10 26 6 4 8 10 5 15 -3 5 -1 20 5 35 9 23 8 26 -5 21 -11
-4 -15 1 -15 19 0 14 6 25 13 25 6 1 0 7 -15 15 -15 8 -29 24 -33 35 -9 27
-61 64 -115 80 -25 8 -50 17 -56 22 -7 5 -18 3 -27 -7z"/>
<path d="M1295 2468 c-60 -36 -94 -72 -101 -107 -8 -36 -5 -37 37 -12 57 35
119 8 154 -65 9 -19 13 -40 9 -46 -5 -7 -8 -29 -9 -50 -1 -21 -9 -46 -20 -58
-24 -27 -13 -36 58 -44 47 -5 57 -4 57 9 0 8 5 15 10 15 22 0 68 58 84 107 28
83 7 153 -66 225 -37 36 -46 40 -107 44 -57 4 -72 2 -106 -18z"/>
<path d="M979 2443 c-17 -4 -39 -43 -39 -68 0 -8 -4 -15 -10 -15 -6 0 -10 -32
-10 -75 0 -74 14 -125 34 -125 5 0 1 -7 -10 -15 -16 -12 -16 -14 -3 -15 21 0
58 -40 38 -40 -10 -1 -9 -4 4 -11 9 -5 17 -19 17 -30 0 -20 15 -51 38 -81 8
-9 12 -26 10 -39 -3 -20 7 -27 72 -54 41 -17 109 -48 150 -70 41 -21 91 -46
110 -56 l35 -17 45 37 c25 21 53 41 63 44 9 4 17 11 17 17 0 5 7 10 15 10 8 0
14 5 12 11 -2 11 7 17 53 38 22 10 22 11 3 7 l-22 -4 24 36 c22 32 23 39 11
57 -11 17 -11 22 3 35 14 13 13 16 -14 21 -17 4 -61 7 -99 8 -53 1 -72 5 -82
19 -12 16 -14 16 -42 0 -37 -22 -82 -23 -108 -3 -10 8 -27 15 -36 15 -10 0
-18 7 -18 15 0 8 -4 15 -9 15 -14 0 -111 100 -111 116 0 7 -4 14 -9 14 -12 0
-40 85 -46 139 -6 64 -27 80 -86 64z"/>
<path d="M2382 2138 c-7 -7 -21 -13 -30 -14 -31 -1 -55 -16 -41 -25 8 -5 0
-13 -26 -23 -20 -9 -41 -16 -44 -16 -21 0 -73 -61 -73 -85 0 -19 -5 -24 -17
-20 -11 3 -28 -7 -47 -26 -28 -31 -17 -31 19 -1 9 8 20 12 24 8 9 -8 -11 -42
-24 -40 -4 1 -18 -14 -30 -33 l-23 -34 30 -11 c17 -5 27 -14 24 -19 -3 -5 3
-12 13 -16 10 -4 21 -11 25 -16 3 -6 15 -11 26 -12 30 -2 52 -24 52 -51 0 -14
6 -24 14 -24 8 0 16 -7 20 -15 7 -18 46 -20 70 -2 15 11 16 15 4 25 -11 9 -14
31 -10 94 4 83 19 118 49 118 7 0 13 5 13 11 0 7 16 9 48 5 72 -8 72 -9 72
-22 0 -6 9 -14 20 -17 11 -3 20 -12 20 -21 0 -9 6 -16 13 -16 8 0 19 -11 25
-25 9 -19 19 -25 45 -25 51 0 67 17 69 76 3 63 -5 73 -85 115 -67 34 -173 114
-197 148 -17 24 -31 26 -48 9z"/>
<path d="M3266 1932 c-2 -1 -30 -3 -64 -4 -69 -2 -73 -8 -10 -15 93 -10 186
-34 256 -68 40 -19 70 -30 67 -25 -10 16 5 12 36 -11 16 -11 29 -18 29 -15 0
2 -20 19 -45 37 -25 18 -43 34 -41 36 2 3 28 -7 58 -22 l53 -26 -27 24 c-14
14 -51 33 -82 42 -31 10 -56 21 -56 25 0 12 -163 33 -174 22z"/>
<path d="M2020 1690 c-8 -5 -40 -12 -70 -16 -36 -4 -67 -15 -90 -32 -19 -15
-41 -27 -50 -27 -8 0 -16 -9 -18 -20 -6 -28 -33 -57 -49 -51 -7 3 -13 -1 -13
-8 0 -7 -11 -25 -25 -40 l-25 -27 38 -52 c21 -29 53 -78 72 -110 19 -32 40
-55 47 -53 34 14 96 27 101 22 3 -3 0 -6 -6 -6 -7 0 -12 -4 -12 -9 0 -5 18 -2
40 6 22 9 40 21 40 28 0 6 11 17 25 23 14 6 25 18 25 27 0 8 7 15 15 15 11 0
15 13 15 54 0 30 4 66 10 81 7 17 7 24 0 20 -17 -11 -11 14 8 33 11 11 22 37
25 58 6 34 3 44 -19 67 -25 28 -57 34 -84 17z"/>
<path d="M2880 1650 c0 -6 -38 -10 -92 -10 -90 0 -198 -24 -231 -49 -81 -66
-87 -73 -87 -111 0 -21 -6 -41 -12 -43 -10 -4 -10 -8 1 -15 8 -6 22 -30 30
-53 21 -56 34 -58 48 -7 8 29 20 47 35 53 13 6 22 16 21 21 -1 7 8 9 22 6 15
-2 25 0 25 7 0 17 55 13 89 -6 17 -10 31 -24 31 -30 0 -7 9 -13 20 -13 13 0
20 -7 20 -20 0 -11 5 -20 10 -20 6 0 10 -9 10 -20 0 -11 -4 -20 -10 -20 -5 0
-10 -10 -10 -22 0 -12 -8 -30 -17 -41 -10 -11 -12 -17 -5 -13 17 10 15 -4 -3
-24 -14 -16 -13 -19 11 -34 46 -31 93 -5 170 95 l45 59 -10 53 c-5 28 -10 76
-10 106 -1 74 -7 91 -49 129 -37 33 -52 40 -52 22z"/>
<path d="M2227 1497 c-20 -23 -37 -45 -37 -49 0 -5 -6 -8 -14 -8 -30 0 -30
-233 0 -244 8 -3 14 -18 14 -34 0 -16 7 -35 15 -42 8 -7 15 -18 15 -25 0 -28
68 -55 139 -55 66 0 70 2 112 40 l43 39 -20 23 c-11 13 -28 42 -38 65 -10 22
-36 58 -57 79 -21 21 -39 46 -39 56 0 10 -7 18 -15 18 -8 0 -15 6 -15 14 0 7
-3 28 -7 46 -4 23 -3 31 5 26 13 -8 -3 25 -28 60 -26 35 -35 34 -73 -9z"/>
<path d="M1925 1163 c-41 -43 -41 -38 -2 -181 20 -73 24 -98 15 -117 -7 -16
-7 -42 1 -87 6 -34 8 -73 5 -85 -4 -14 -2 -23 5 -23 6 0 12 12 12 28 1 18 4
13 9 -18 5 -25 6 -52 4 -62 -7 -23 10 -31 68 -31 37 0 55 6 70 21 l21 20 33
-21 c19 -12 34 -30 34 -39 0 -12 8 -18 23 -18 12 -1 47 -2 77 -4 57 -4 93 10
68 25 -7 5 22 9 69 9 52 0 83 -4 85 -11 2 -7 26 -11 60 -10 32 0 60 -4 64 -10
3 -6 9 -7 13 -3 10 15 89 74 98 74 5 0 26 -12 47 -26 31 -21 38 -23 33 -10 -4
10 -7 22 -7 27 0 6 -4 8 -9 4 -11 -6 -61 15 -61 26 0 4 8 13 18 18 9 6 13 11
8 11 -6 0 -23 -12 -38 -27 -15 -15 -28 -21 -28 -15 0 7 4 12 8 12 5 0 7 14 4
30 -3 20 -10 30 -21 30 -10 0 -27 11 -39 25 -13 14 -34 30 -47 35 -14 5 -25
16 -25 25 0 8 -9 15 -20 15 -10 0 -25 7 -32 15 -39 47 -66 65 -105 71 -24 3
-43 10 -43 15 0 11 -34 12 -44 2 -4 -5 -31 -13 -59 -19 -29 -6 -51 -15 -50
-21 1 -6 -16 -30 -38 -52 -23 -23 -38 -41 -34 -41 4 0 -3 -9 -16 -19 -22 -18
-22 -20 -6 -26 9 -4 17 -15 17 -25 0 -13 -6 -16 -27 -12 -27 4 -27 4 -8 -11
20 -15 19 -16 -18 -52 -21 -20 -42 -33 -46 -30 -12 7 -12 85 0 85 5 0 9 9 9
19 0 11 4 22 8 25 4 2 9 19 10 36 2 30 8 40 45 81 9 10 17 27 17 36 0 9 10 27
22 40 l21 23 -22 24 c-13 14 -20 30 -16 36 8 12 -24 80 -37 80 -5 0 -8 7 -8
15 0 14 -22 44 -62 87 -12 11 -32 18 -58 18 -32 0 -45 -7 -75 -37z"/>
<path d="M3120 1150 c0 -5 -18 -10 -39 -10 -22 0 -41 -3 -43 -7 -7 -17 -136
-53 -183 -51 -30 1 -50 -3 -53 -11 -3 -8 -19 -9 -53 -5 -34 5 -49 3 -49 -5 0
-6 -8 -11 -17 -11 -37 -1 -86 -106 -65 -140 6 -11 9 -25 6 -33 -11 -28 25 -43
129 -54 38 -4 47 -2 47 11 0 9 5 16 10 16 6 0 10 4 10 8 0 5 18 28 40 52 l40
44 35 -17 c20 -9 42 -17 50 -17 8 0 15 -9 15 -20 0 -11 7 -20 15 -20 8 0 15
-6 15 -14 0 -15 51 -26 120 -25 45 0 105 17 68 18 -10 1 -18 5 -18 11 0 5 75
9 190 8 104 -1 193 2 197 6 4 3 -1 20 -11 37 -10 17 -16 40 -13 52 9 40 -4 52
-62 53 -53 2 -157 29 -176 45 -5 5 -17 9 -27 9 -10 0 -18 4 -18 8 0 9 -55 35
-97 47 -13 4 -23 11 -23 16 0 5 -9 9 -20 9 -11 0 -20 -4 -20 -10z"/>
<path d="M3334 823 c1 -15 -10 -19 -56 -23 -32 -3 -66 -12 -75 -20 -11 -9 -44
-16 -88 -18 -38 -2 -89 -9 -113 -17 -23 -8 -46 -14 -50 -14 -24 4 -40 -3 -38
-18 1 -13 -9 -19 -34 -23 -26 -4 -36 -11 -41 -30 -4 -14 -7 -19 -8 -12 -1 6
-6 12 -13 12 -7 0 -6 -6 4 -17 8 -10 18 -26 21 -35 4 -10 13 -18 22 -18 8 0
15 -7 15 -15 0 -11 11 -15 41 -15 32 0 40 3 35 15 -4 12 11 14 102 14 158 -1
147 -3 128 26 -18 28 -21 39 -6 30 6 -3 10 3 10 14 0 11 9 25 20 31 17 9 24 6
46 -20 14 -16 32 -30 40 -30 7 0 16 -11 20 -25 7 -27 40 -38 104 -33 19 1 58
0 85 -1 l50 -4 -40 -7 -40 -7 50 -3 c71 -5 108 -1 116 12 4 6 13 7 20 3 8 -5
11 -4 6 0 -4 5 7 14 25 20 28 9 33 15 31 39 -1 16 5 35 13 43 9 9 12 23 8 37
-12 40 -25 48 -68 41 -26 -4 -36 -3 -28 3 9 6 -7 11 -48 15 -33 3 -66 9 -73
15 -12 9 -163 52 -184 52 -6 0 -10 -8 -9 -17z"/>
</g>
</svg>
